<mxfile host="65bd71144e">
    <diagram id="vM-KKJDrHRLthuph20QJ" name="Page-1">
        <mxGraphModel dx="1521" dy="861" grid="1" gridSize="10" guides="1" tooltips="1" connect="1" arrows="1" fold="1" page="1" pageScale="1" pageWidth="827" pageHeight="1169" math="0" shadow="0">
            <root>
                <mxCell id="0"/>
                <mxCell id="1" parent="0"/>
                <mxCell id="2" value="" style="rounded=0;whiteSpace=wrap;html=1;" parent="1" vertex="1">
                    <mxGeometry x="390" y="220" width="230" height="290" as="geometry"/>
                </mxCell>
                <mxCell id="3" value="xyz" style="rounded=1;whiteSpace=wrap;html=1;" parent="1" vertex="1">
                    <mxGeometry x="414" y="250" width="186" height="30" as="geometry"/>
                </mxCell>
                <mxCell id="4" value="nom du produit 8" style="rounded=1;whiteSpace=wrap;html=1;" parent="1" vertex="1">
                    <mxGeometry x="414" y="310" width="186" height="30" as="geometry"/>
                </mxCell>
                <mxCell id="14" style="edgeStyle=none;html=1;" parent="1" target="15" edge="1">
                    <mxGeometry relative="1" as="geometry">
                        <mxPoint x="350" y="270" as="targetPoint"/>
                        <mxPoint x="140" y="270" as="sourcePoint"/>
                    </mxGeometry>
                </mxCell>
                <mxCell id="5" value="20" style="rounded=1;whiteSpace=wrap;html=1;" parent="1" vertex="1">
                    <mxGeometry x="414" y="370" width="186" height="30" as="geometry"/>
                </mxCell>
                <mxCell id="6" value="Actor" style="shape=umlActor;verticalLabelPosition=bottom;verticalAlign=top;html=1;outlineConnect=0;" parent="1" vertex="1">
                    <mxGeometry x="90" y="230" width="30" height="60" as="geometry"/>
                </mxCell>
                <mxCell id="15" value="id=8" style="text;html=1;strokeColor=none;fillColor=none;align=center;verticalAlign=middle;whiteSpace=wrap;rounded=0;" parent="1" vertex="1">
                    <mxGeometry x="300" y="250" width="60" height="30" as="geometry"/>
                </mxCell>
                <mxCell id="16" value="" style="shape=cylinder3;whiteSpace=wrap;html=1;boundedLbl=1;backgroundOutline=1;size=15;" parent="1" vertex="1">
                    <mxGeometry x="410" y="40" width="60" height="80" as="geometry"/>
                </mxCell>
                <mxCell id="17" value="" style="shape=flexArrow;endArrow=classic;html=1;entryX=0.325;entryY=-0.003;entryDx=0;entryDy=0;entryPerimeter=0;" parent="1" target="2" edge="1">
                    <mxGeometry width="50" height="50" relative="1" as="geometry">
                        <mxPoint x="450" y="140" as="sourcePoint"/>
                        <mxPoint x="560" y="300" as="targetPoint"/>
                    </mxGeometry>
                </mxCell>
                <mxCell id="18" value="Validation" style="rounded=1;whiteSpace=wrap;html=1;" parent="1" vertex="1">
                    <mxGeometry x="530" y="460" width="70" height="30" as="geometry"/>
                </mxCell>
                <mxCell id="19" value="" style="endArrow=classic;html=1;" parent="1" edge="1">
                    <mxGeometry width="50" height="50" relative="1" as="geometry">
                        <mxPoint x="140" y="320" as="sourcePoint"/>
                        <mxPoint x="350" y="360" as="targetPoint"/>
                    </mxGeometry>
                </mxCell>
                <mxCell id="20" value="soumission formulaire" style="edgeLabel;html=1;align=center;verticalAlign=middle;resizable=0;points=[];" parent="19" vertex="1" connectable="0">
                    <mxGeometry x="0.277" y="-2" relative="1" as="geometry">
                        <mxPoint as="offset"/>
                    </mxGeometry>
                </mxCell>
                <mxCell id="23" value="$_POST" style="rounded=0;whiteSpace=wrap;html=1;" parent="1" vertex="1">
                    <mxGeometry x="630" y="40" width="120" height="60" as="geometry"/>
                </mxCell>
                <mxCell id="24" value="" style="shape=flexArrow;endArrow=classic;html=1;" parent="1" edge="1">
                    <mxGeometry width="50" height="50" relative="1" as="geometry">
                        <mxPoint x="670" y="110" as="sourcePoint"/>
                        <mxPoint x="620" y="200" as="targetPoint"/>
                    </mxGeometry>
                </mxCell>
                <mxCell id="25" value="Text" style="text;html=1;strokeColor=none;fillColor=none;align=center;verticalAlign=middle;whiteSpace=wrap;rounded=0;" parent="1" vertex="1">
                    <mxGeometry x="510" y="310" width="60" height="30" as="geometry"/>
                </mxCell>
                <mxCell id="26" value="1ere utilisation" style="text;html=1;strokeColor=none;fillColor=none;align=center;verticalAlign=middle;whiteSpace=wrap;rounded=0;" parent="1" vertex="1">
                    <mxGeometry x="350" y="140" width="60" height="30" as="geometry"/>
                </mxCell>
                <mxCell id="27" value="Autres utilisations" style="text;html=1;strokeColor=none;fillColor=none;align=center;verticalAlign=middle;whiteSpace=wrap;rounded=0;" parent="1" vertex="1">
                    <mxGeometry x="670" y="140" width="60" height="30" as="geometry"/>
                </mxCell>
                <mxCell id="28" value="CREATE + UPDATE" style="rounded=0;whiteSpace=wrap;html=1;" vertex="1" parent="1">
                    <mxGeometry x="460" y="790" width="200" height="330" as="geometry"/>
                </mxCell>
                <mxCell id="29" value="create.php" style="rounded=0;whiteSpace=wrap;html=1;" vertex="1" parent="1">
                    <mxGeometry x="220" y="850" width="120" height="60" as="geometry"/>
                </mxCell>
                <mxCell id="30" value="modify.php" style="rounded=0;whiteSpace=wrap;html=1;" vertex="1" parent="1">
                    <mxGeometry x="220" y="970" width="120" height="60" as="geometry"/>
                </mxCell>
                <mxCell id="31" value="" style="endArrow=classic;html=1;" edge="1" parent="1" target="28">
                    <mxGeometry width="50" height="50" relative="1" as="geometry">
                        <mxPoint x="350" y="880" as="sourcePoint"/>
                        <mxPoint x="440" y="960" as="targetPoint"/>
                    </mxGeometry>
                </mxCell>
                <mxCell id="32" value="" style="endArrow=classic;html=1;entryX=0;entryY=0.5;entryDx=0;entryDy=0;" edge="1" parent="1" target="28">
                    <mxGeometry width="50" height="50" relative="1" as="geometry">
                        <mxPoint x="350" y="1010" as="sourcePoint"/>
                        <mxPoint x="440" y="960" as="targetPoint"/>
                    </mxGeometry>
                </mxCell>
                <mxCell id="33" value="$mode = creation/modification" style="text;html=1;align=center;verticalAlign=middle;resizable=0;points=[];autosize=1;strokeColor=none;fillColor=none;" vertex="1" parent="1">
                    <mxGeometry x="180" y="930" width="180" height="20" as="geometry"/>
                </mxCell>
            </root>
        </mxGraphModel>
    </diagram>
</mxfile>